<?xml version="1.0" encoding="UTF-8"?>
<svg id="Layer_2" data-name="Layer 2" xmlns="http://www.w3.org/2000/svg" xmlns:xlink="http://www.w3.org/1999/xlink" viewBox="0 0 128 128">
  <defs>
    <style>
      .cls-1 {
        fill: url(#linear-gradient-2);
      }

      .cls-2 {
        fill: url(#linear-gradient-3);
      }

      .cls-3 {
        fill: url(#linear-gradient);
      }

      .cls-4 {
        fill: url(#linear-gradient-4);
      }
    </style>
    <linearGradient id="linear-gradient" x1="18.75" y1="109.25" x2="101.33" y2="26.67" gradientUnits="userSpaceOnUse">
      <stop offset="0" stop-color="#c8992e"/>
      <stop offset=".15" stop-color="#b57e10"/>
      <stop offset=".43" stop-color="#f9df7b"/>
      <stop offset=".59" stop-color="#fff3a6"/>
      <stop offset=".73" stop-color="#f9df7b"/>
      <stop offset=".93" stop-color="#b57e10"/>
      <stop offset=".94" stop-color="#b88316"/>
      <stop offset="1" stop-color="#cda035"/>
    </linearGradient>
    <linearGradient id="linear-gradient-2" x1="5.99" y1="96.42" x2="88.57" y2="13.84" xlink:href="#linear-gradient"/>
    <linearGradient id="linear-gradient-3" x1="10.51" y1="100.95" x2="93.1" y2="18.37" xlink:href="#linear-gradient"/>
    <linearGradient id="linear-gradient-4" x1="42.75" y1="133.19" x2="125.33" y2="50.6" xlink:href="#linear-gradient"/>
  </defs>
  <g id="Layer_1-2" data-name="Layer 1">
    <g>
      <path class="cls-3" d="M64,128c-17.1,0-33.17-6.66-45.25-18.75C6.66,97.17,0,81.09,0,64S6.66,30.83,18.75,18.75,46.91,0,64,0s33.17,6.66,45.25,18.75c12.09,12.09,18.75,28.16,18.75,45.25s-6.66,33.17-18.75,45.25c-12.09,12.09-28.16,18.75-45.25,18.75Zm0-123.39C31.25,4.61,4.61,31.25,4.61,64s26.64,59.39,59.39,59.39,59.39-26.64,59.39-59.39S96.75,4.61,64,4.61Z"/>
      <g>
        <path class="cls-1" d="M20.93,102.69h25.24c.35,0,.59-.35,.47-.68L21.4,35.37c-.2-.52-.97-.38-.97,.18V102.19c0,.28,.22,.5,.5,.5Z"/>
        <path class="cls-2" d="M80.95,25.81v23.01c0,.35-.34,.59-.67,.47-9.43-3.36-23.15-3.36-32.58,0-.33,.12-.67-.13-.67-.47V25.81c0-.28-.22-.5-.5-.5H20.93c-.28,0-.5,.22-.5,.5h0c0,.06,.01,.12,.03,.18l26.43,69.81h.15v-30.57c0-.21,.13-.4,.33-.47,11.13-4.21,22.22-4.53,33.26-.3,.19,.07,.32,.26,.32,.47v30.87h.15L107.54,25.99c.02-.06,.03-.12,.03-.18h0c0-.28-.22-.5-.5-.5h-25.61c-.28,0-.5,.22-.5,.5Z"/>
        <path class="cls-4" d="M107.57,102.19V35.54c0-.56-.77-.7-.97-.18l-25.24,66.65c-.12,.33,.12,.68,.47,.68h25.24c.28,0,.5-.22,.5-.5Z"/>
      </g>
    </g>
  </g>
</svg>